<?xml version="1.0" encoding="UTF-8" standalone="no"?>
<!-- Prepared by Sergey Shepelenko (https://gitlab.com/viatorem) -->
<svg xmlns="http://www.w3.org/2000/svg" viewBox="0 0 800 450" version="1.1">
<rect width="800" height="450" x="0" y="0" style="fill:#444444"/>
<path style="fill:#0096ff" d="m 583.33497,127.20042 c -10.09018,-4.09303 -21.70137,-1.83228 -29.42567,5.73262 l -51.4366,50.39217 V 152.61077 C 502.4727,130.73782 484.36741,113 462.03495,113 H 240.4376 C 218.10619,113 200,130.73782 200,152.61077 V 298.38925 C 200,320.26218 218.10619,338 240.4376,338 h 221.59735 c 22.33246,0 40.43775,-17.73782 40.43775,-39.61075 v -30.71544 l 51.4366,50.39217 c 5.16985,5.06153 12.07139,7.75175 19.09975,7.75175 3.47615,0 6.98545,-0.66327 10.32592,-2.01816 10.08515,-4.09402 16.6651,-13.73673 16.6651,-24.435 V 151.63446 c 0,-10.69826 -6.57995,-20.34099 -16.6651,-24.43404 z m -193.28633,108.56154 -55.11549,41.4812 c -2.35078,1.77261 -5.19288,2.67848 -8.04897,2.67848 -1.98828,0 -3.98454,-0.43827 -5.838,-1.33338 -4.51282,-2.17762 -7.36991,-6.67662 -7.36991,-11.60706 v -82.96338 c 0,-4.93141 2.85709,-9.42945 7.36991,-11.60609 4.51482,-2.17956 9.89744,-1.65912 13.88598,1.34512 l 55.11549,41.48021 c 3.25554,2.44958 5.16292,6.2423 5.16292,10.26198 5.1e-4,4.02063 -1.90637,7.81335 -5.16193,10.26292 z"/>
</svg>
